<svg width="16" height="16" viewBox="0 0 16 16" fill="none" xmlns="http://www.w3.org/2000/svg"><path d="M0 8C0 3.58172 3.58172 0 8 0C12.4183 0 16 3.58172 16 8C16 12.4183 12.4183 16 8 16C3.58172 16 0 12.4183 0 8Z" fill="white" fill-opacity="0.25"></path><path d="M5.22446 4.37691C4.99014 4.14259 4.61025 4.14259 4.37593 4.37691C4.14162 4.61122 4.14162 4.99112 4.37593 5.22544L7.15167 8.00117L4.37593 10.7769C4.14162 11.0112 4.14162 11.3911 4.37593 11.6254C4.61025 11.8598 4.99015 11.8598 5.22446 11.6254L8.0002 8.8497L10.7759 11.6254C11.0102 11.8598 11.3901 11.8598 11.6245 11.6254C11.8588 11.3911 11.8588 11.0112 11.6245 10.7769L8.84872 8.00117L11.6245 5.22544C11.8588 4.99112 11.8588 4.61122 11.6245 4.37691C11.3901 4.14259 11.0102 4.14259 10.7759 4.37691L8.0002 7.15264L5.22446 4.37691Z" fill="black" fill-opacity="0.25"></path></svg>