<svg width="24" height="24" viewBox="0 0 24 24" xmlns="http://www.w3.org/2000/svg" style="color: rgb(0, 0, 0);"><path d="M17.1008 15.5404V10.6861C16.0143 10.4581 15.1706 11.3038 14.3434 12.1329C13.3644 13.1142 12.4085 14.0722 11.1007 13.2004C9.50243 12.1348 8.10077 12.6004 6.90078 14.7004V15.5404C6.90078 15.8764 6.90078 16.0445 6.96618 16.1728C7.0237 16.2857 7.11549 16.3775 7.22839 16.435C7.35673 16.5004 7.52475 16.5004 7.86078 16.5004H16.1408C16.4768 16.5004 16.6448 16.5004 16.7732 16.435C16.8861 16.3775 16.9779 16.2857 17.0354 16.1728C17.1008 16.0445 17.1008 15.8764 17.1008 15.5404Z"></path><path d="M15.7456 5.40039H8.256C7.77303 5.40038 7.3744 5.40038 7.04969 5.42691C6.71243 5.45446 6.40241 5.5136 6.11121 5.66198C5.65962 5.89207 5.29246 6.25923 5.06237 6.71081C4.91399 7.00202 4.85485 7.31204 4.8273 7.6493C4.80077 7.97401 4.80077 8.37262 4.80078 8.85559V15.1452C4.80077 15.6281 4.80077 16.0268 4.8273 16.3515C4.85485 16.6887 4.91399 16.9988 5.06237 17.29C5.29246 17.7416 5.65962 18.1087 6.11121 18.3388C6.40241 18.4872 6.71243 18.5463 7.04969 18.5739C7.3744 18.6004 7.77301 18.6004 8.25599 18.6004H15.7456C16.2286 18.6004 16.6272 18.6004 16.9519 18.5739C17.2891 18.5463 17.5992 18.4872 17.8904 18.3388C18.3419 18.1087 18.7091 17.7416 18.9392 17.29C19.0876 16.9988 19.1467 16.6887 19.1743 16.3515C19.2008 16.0268 19.2008 15.6282 19.2008 15.1452V8.8556C19.2008 8.37262 19.2008 7.97401 19.1743 7.6493C19.1467 7.31204 19.0876 7.00202 18.9392 6.71081C18.7091 6.25923 18.3419 5.89207 17.8904 5.66198C17.5992 5.5136 17.2891 5.45446 16.9519 5.42691C16.6272 5.40038 16.2285 5.40038 15.7456 5.40039ZM6.65599 6.73118C6.74983 6.68337 6.88436 6.64441 7.14741 6.62292C7.41746 6.60086 7.76683 6.60039 8.28078 6.60039H15.7208C16.2347 6.60039 16.5841 6.60086 16.8542 6.62292C17.1172 6.64441 17.2517 6.68337 17.3456 6.73118C17.5714 6.84623 17.7549 7.02981 17.87 7.2556C17.9178 7.34944 17.9568 7.48397 17.9783 7.74701C18.0003 8.01707 18.0008 8.36644 18.0008 8.88039V15.1204C18.0008 15.6343 18.0003 15.9837 17.9783 16.2538C17.9568 16.5168 17.9178 16.6513 17.87 16.7452C17.7549 16.971 17.5714 17.1546 17.3456 17.2696C17.2517 17.3174 17.1172 17.3564 16.8542 17.3779C16.5841 17.3999 16.2347 17.4004 15.7208 17.4004H8.28078C7.76683 17.4004 7.41746 17.3999 7.14741 17.3779C6.88436 17.3564 6.74983 17.3174 6.65599 17.2696C6.4302 17.1546 6.24662 16.971 6.13157 16.7452C6.08376 16.6513 6.04481 16.5168 6.02331 16.2538C6.00125 15.9837 6.00078 15.6343 6.00078 15.1204V8.88039C6.00078 8.36644 6.00125 8.01707 6.02331 7.74701C6.04481 7.48397 6.08376 7.34944 6.13157 7.2556C6.24662 7.02981 6.4302 6.84623 6.65599 6.73118Z"></path><path d="M10.5008 9.60039C10.5008 10.2631 9.96352 10.8004 9.30078 10.8004C8.63804 10.8004 8.10078 10.2631 8.10078 9.60039C8.10078 8.93765 8.63804 8.40039 9.30078 8.40039C9.96352 8.40039 10.5008 8.93765 10.5008 9.60039Z"></path></svg>