<svg xmlns="http://www.w3.org/2000/svg" viewBox="0 0 53.391998291015625 64.9749984741211"><g><g><path fill="#522d86" d="M29.324 59.408H16.85l-2.275 5.567h16.068l7.183-17.657-1.901-4.203-6.601 16.293zM16.42 0H0l20.081 42.561 7.367-18.184L16.42 0z"></path><path fill="#924898" d="M35.925 43.115l-8.477-18.738-7.367 18.184 1.958 4.151-5.189 12.696h12.474l6.601-16.293z"></path><path fill="#009c94" d="M20.081 42.561l-6.825 16.847h3.594l5.189-12.696-1.958-4.151zM53.392 0H37.323l-9.875 24.377 8.477 18.738L53.392 0z"></path><path fill="#199bd7" d="M35.925 43.115l-8.477-18.738-7.367 18.184 1.958 4.151-5.189 12.696h12.474l6.601-16.293z"></path></g></g></svg>