<svg width="20" height="20" viewBox="0 0 20 20"
  xmlns="http://www.w3.org/2000/svg">
  <path d="M15.9071 6.96339L14.2113 8.30964C13.8836 8.56977 13.4004 8.33641 13.4004 7.91803V7.10936C12.5607 7.23808 11.8788 7.68648 11.3191 8.28331C10.6455 9.00155 10.1732 9.91187 9.86138 10.6543C9.14595 12.3577 8.40623 13.3755 7.48027 13.9426C6.55638 14.5084 5.52835 14.5718 4.40039 14.5718C4.12425 14.5718 3.90039 14.3479 3.90039 14.0718C3.90039 13.7956 4.12425 13.5718 4.40039 13.5718C5.52243 13.5718 6.2944 13.4962 6.95801 13.0898C7.61955 12.6847 8.25482 11.897 8.9394 10.2671C9.27153 9.47628 9.7992 8.44215 10.5897 7.59926C11.2909 6.85148 12.217 6.23727 13.4004 6.10032V5.22554C13.4004 4.80717 13.8836 4.57381 14.2113 4.83394L15.9071 6.18018C16.1593 6.38036 16.1593 6.76321 15.9071 6.96339Z"></path>
  <path d="M10.5897 12.5443C10.4743 12.4213 10.3645 12.2941 10.2601 12.1643C10.4268 11.8448 10.5869 11.5027 10.7426 11.1377C10.9158 11.3901 11.1075 11.6346 11.3191 11.8603C11.8788 12.4571 12.5607 12.9055 13.4004 13.0342V12.0756C13.4004 11.6573 13.8836 11.4239 14.2113 11.684L15.9071 13.0303C16.1593 13.2305 16.1593 13.6133 15.9071 13.8135L14.2113 15.1597C13.8836 15.4199 13.4004 15.1865 13.4004 14.7681V14.0433C12.217 13.9063 11.2909 13.2921 10.5897 12.5443Z"></path>
  <path d="M8.48125 8.89386C8.65011 8.5732 8.84603 8.23827 9.0721 7.90583C8.58949 7.11174 8.07304 6.56398 7.48027 6.20095C6.55638 5.63514 5.52835 5.57179 4.40039 5.57179C4.12425 5.57179 3.90039 5.79565 3.90039 6.07179C3.90039 6.34793 4.12425 6.57179 4.40039 6.57179C5.52243 6.57179 6.2944 6.64733 6.95801 7.05374C7.46981 7.36718 7.9659 7.9096 8.48125 8.89386Z"></path>
</svg>